<?xml version="1.0" encoding="utf-8" ?>
<svg baseProfile="full" height="600px" version="1.1" viewBox="0 0 377.44380079142826 600" width="377.44380079142826px" xmlns="http://www.w3.org/2000/svg" xmlns:ev="http://www.w3.org/2001/xml-events" xmlns:xlink="http://www.w3.org/1999/xlink"><defs /><rect fill="#F5F5F5" height="600" width="377.44380079142826" x="0" y="0" /><text fill="#333" font-family="Arial, sans-serif" font-size="16px" font-weight="bold" text-anchor="middle" x="188.72190039571413" y="25">River: ELBE</text><path d="M 293.70 472.01 L 293.76 471.70 L 293.22 470.28 L 292.90 470.37 L 292.57 470.77 L 291.87 470.74 L 291.41 470.27 L 288.83 468.57 L 288.40 467.72 L 286.46 466.01 L 285.96 464.70 L 286.02 464.35 L 285.02 462.27 L 284.83 461.44 L 284.11 459.80 L 284.05 458.77 L 284.29 458.33 L 285.52 457.57 L 285.72 457.29 L 285.67 454.51 L 285.56 454.20 L 285.28 454.09 L 284.74 453.52 L 284.62 451.75 L 284.27 451.23 L 282.88 450.18 L 282.06 449.04 L 282.36 447.37 L 281.75 445.09 L 281.76 444.70 L 281.85 444.18 L 281.66 443.82 L 281.06 443.59 L 280.32 442.40 L 280.24 442.01 L 280.51 441.15 L 279.61 439.33 L 279.22 439.10 L 278.90 436.64 L 278.17 434.63 L 277.58 431.90 L 277.51 430.76 L 277.63 427.85 L 277.04 426.26 L 276.89 425.94 L 276.84 424.82 L 276.82 424.28 L 276.13 422.90 L 275.99 422.50 L 274.97 420.67 L 274.98 419.04 L 275.04 415.27 L 275.25 414.08 L 274.87 410.00 L 274.79 408.85 L 273.21 407.02 L 272.83 405.55 L 273.09 404.97 L 273.30 400.94 L 274.27 398.11 L 274.42 396.03 L 275.24 395.26 L 276.67 391.31 L 277.25 388.93 L 278.43 387.71 L 278.68 387.14 L 278.86 386.71 L 279.72 385.53 L 280.68 383.12 L 281.89 381.12 L 282.28 378.44 L 283.63 376.50 L 284.32 375.24 L 284.95 374.57 L 285.06 372.59 L 285.80 371.29 L 287.12 369.92 L 288.73 367.49 L 290.93 364.54 L 291.35 363.78 L 292.32 362.59 L 293.07 360.54 L 293.57 359.90 L 294.19 359.57 L 295.22 356.16 L 295.50 355.66 L 296.41 355.50 L 297.08 353.81 L 298.06 352.27 L 299.01 350.88 L 299.80 348.91 L 300.24 348.02 L 301.14 346.11 L 302.44 344.34 L 302.84 344.28 L 302.91 344.06 L 303.20 344.00 L 304.09 343.23 L 304.54 341.32 L 304.83 340.62 L 305.03 340.49 L 305.97 339.64 L 306.77 337.83 L 307.37 336.90 L 308.18 336.41 L 308.60 335.83 L 308.86 334.73 L 309.90 333.81 L 309.77 333.56 L 310.36 333.37 L 310.67 332.97 L 311.34 331.51 L 311.62 329.92 L 312.03 329.80 L 312.74 328.39 L 314.18 326.24 L 314.66 325.38 L 314.99 323.51 L 315.25 322.93 L 316.00 322.12 L 316.30 321.27 L 316.65 321.01 L 316.99 319.66 L 317.53 318.63 L 317.91 317.54 L 317.94 316.45 L 317.84 315.73 L 317.37 314.62 L 312.49 314.17 L 312.38 314.16 L 305.42 313.51 L 305.60 314.42 L 304.91 315.61 L 304.43 316.82 L 303.43 318.01 L 303.35 318.39 L 303.16 319.30 L 302.55 320.36 L 302.07 320.84 L 301.51 322.10 L 301.44 322.75 L 300.37 324.60 L 300.14 325.51 L 298.96 327.43 L 298.63 328.74 L 297.68 329.52 L 296.79 331.10 L 295.38 332.61 L 294.79 333.72 L 294.47 334.86 L 293.88 335.73 L 293.84 336.33 L 294.09 337.37 L 294.05 337.71 L 293.20 338.78 L 291.93 339.40 L 291.43 339.52 L 291.28 340.14 L 290.65 340.84 L 290.34 341.54 L 290.21 342.52 L 289.96 342.87 L 288.13 344.25 L 287.76 345.00 L 287.88 345.47 L 284.92 347.28 L 284.79 348.18 L 284.42 349.04 L 283.94 349.61 L 283.01 350.27 L 282.74 350.79 L 282.62 351.56 L 280.52 354.58 L 280.58 355.12 L 280.22 355.69 L 279.13 356.74 L 279.05 357.46 L 278.59 358.95 L 278.06 359.52 L 277.36 359.77 L 276.85 361.65 L 276.66 361.94 L 276.01 362.36 L 274.62 364.00 L 273.74 365.19 L 273.53 366.01 L 273.30 366.36 L 271.77 367.39 L 271.30 368.03 L 270.64 368.58 L 270.20 369.42 L 267.39 371.51 L 267.04 371.86 L 266.89 372.56 L 265.35 373.85 L 263.94 375.43 L 263.95 375.69 L 264.70 376.60 L 264.51 377.11 L 263.96 377.75 L 263.73 378.54 L 263.30 378.95 L 262.71 379.34 L 262.08 380.20 L 261.53 381.46 L 260.72 382.30 L 259.01 383.33 L 258.85 383.82 L 259.38 384.45 L 260.38 385.18 L 260.39 385.43 L 259.44 386.58 L 258.68 387.08 L 258.03 387.29 L 258.44 387.97 L 259.17 389.17 L 259.66 388.70 L 260.41 388.98 L 261.05 390.91 L 262.01 392.21 L 261.74 393.08 L 261.76 394.92 L 261.60 395.50 L 260.50 397.72 L 260.67 398.47 L 261.09 398.55 L 259.79 400.38 L 259.51 401.69 L 259.60 402.41 L 259.96 403.18 L 259.52 405.77 L 259.00 407.77 L 258.97 408.13 L 259.43 409.77 L 259.61 412.43 L 259.19 413.72 L 259.24 414.14 L 259.79 415.03 L 259.64 416.57 L 259.64 419.94 L 259.95 420.53 L 259.85 421.31 L 259.85 421.64 L 259.86 423.29 L 259.87 425.92 L 260.78 426.37 L 260.43 427.04 L 261.01 428.27 L 261.27 430.37 L 261.60 430.78 L 261.50 431.81 L 263.06 434.88 L 263.25 435.37 L 264.01 437.46 L 264.05 438.92 L 264.28 439.41 L 265.48 440.37 L 265.68 440.64 L 266.13 442.47 L 266.09 442.80 L 265.61 443.64 L 265.75 443.86 L 266.67 443.86 L 267.17 444.27 L 268.02 444.55 L 268.43 445.00 L 268.09 446.41 L 268.51 449.44 L 268.75 449.82 L 269.39 449.99 L 269.78 451.31 L 269.80 452.14 L 270.36 454.93 L 270.53 455.23 L 271.20 456.36 L 271.89 458.19 L 272.87 459.52 L 272.98 460.81 L 272.48 460.96 L 272.30 461.35 L 272.28 464.22 L 272.47 465.01 L 273.31 465.32 L 273.28 465.65 L 274.14 469.10 L 274.41 469.29 L 274.35 472.25 L 274.76 472.92 L 275.65 473.38 L 275.40 475.05 L 275.61 476.89 L 275.90 477.40 L 276.73 477.79 L 276.59 478.22 L 276.81 479.36 L 277.65 482.07 L 278.29 482.70 L 279.08 486.13 L 279.60 486.24 L 280.01 486.58 L 280.29 489.64 L 280.41 489.91 L 281.54 490.47 L 281.48 490.84 L 282.50 494.04 L 282.73 494.54 L 283.38 494.72 L 282.97 495.76 L 283.69 497.78 L 284.08 499.59 L 284.73 503.33 L 285.12 504.47 L 285.60 506.36 L 286.46 508.62 L 287.83 511.99 L 288.26 512.70 L 288.99 514.71 L 290.79 518.07 L 290.84 519.24 L 290.66 520.16 L 290.85 520.52 L 291.32 520.51 L 291.82 519.39 L 293.91 518.53 L 298.56 516.62 L 299.34 516.30 L 305.37 513.83 L 305.04 512.92 L 304.18 512.07 L 303.86 511.31 L 303.73 510.68 L 302.49 508.39 L 302.07 507.23 L 301.70 507.12 L 302.10 506.56 L 302.12 506.31 L 301.90 505.91 L 301.14 505.22 L 300.42 503.54 L 300.10 502.66 L 299.68 502.27 L 297.18 500.66 L 297.44 500.10 L 297.32 499.56 L 296.05 498.11 L 295.48 496.79 L 295.50 496.54 L 295.60 495.35 L 295.09 493.61 L 294.54 492.76 L 293.63 491.94 L 293.88 491.14 L 293.77 490.32 L 291.98 488.12 L 292.07 487.86 L 292.10 487.46 L 291.86 486.63 L 290.88 484.54 L 290.50 484.11 L 290.02 483.97 L 289.99 483.74 L 290.27 483.36 L 290.11 482.69 L 289.09 480.65 L 287.95 477.32 L 288.28 476.74 L 290.17 475.07 L 291.19 474.70 L 292.28 473.58 L 293.48 472.35 L 293.70 472.01 Z" fill="#4A90D9" fill-opacity="0.8" stroke="#2E5A8C" stroke-width="2" /><path d="M 259.89 120.35 L 259.48 119.69 L 258.37 118.52 L 257.75 117.14 L 256.22 114.79 L 255.11 113.51 L 253.68 111.99 L 251.82 110.49 L 249.65 109.06 L 246.19 107.20 L 242.61 105.99 L 238.76 105.31 L 233.90 104.68 L 226.89 103.95 L 219.12 103.50 L 218.96 101.93 L 218.84 101.66 L 218.36 101.36 L 217.86 101.35 L 217.08 101.54 L 216.13 102.00 L 216.03 101.65 L 215.20 101.20 L 213.44 101.42 L 212.61 101.40 L 211.42 101.23 L 209.78 101.31 L 209.01 101.43 L 208.84 101.60 L 208.90 102.59 L 208.82 102.82 L 199.32 102.02 L 198.73 101.93 L 198.50 101.67 L 198.54 101.25 L 195.60 101.11 L 192.46 100.94 L 190.63 101.66 L 189.04 101.96 L 187.80 102.09 L 181.61 102.11 L 181.24 100.88 L 181.36 99.61 L 181.73 98.99 L 178.53 99.30 L 174.26 100.32 L 173.41 100.32 L 172.89 99.76 L 172.07 98.87 L 171.62 98.76 L 170.87 98.95 L 170.29 99.28 L 169.97 99.85 L 169.51 99.80 L 169.91 100.61 L 168.78 99.66 L 167.80 99.79 L 167.00 100.18 L 166.38 101.02 L 166.15 100.55 L 164.92 100.60 L 164.41 100.78 L 163.84 101.20 L 163.52 101.34 L 163.36 101.62 L 163.24 101.84 L 162.80 101.29 L 162.02 101.26 L 160.94 101.78 L 160.58 102.08 L 160.23 102.19 L 159.87 102.06 L 159.61 101.97 L 158.94 101.91 L 158.29 101.93 L 156.20 102.76 L 155.99 102.84 L 155.35 102.51 L 154.69 102.49 L 153.99 102.63 L 153.43 102.87 L 153.11 103.14 L 152.79 103.15 L 152.56 103.25 L 152.36 103.10 L 152.05 102.45 L 151.56 102.23 L 150.82 102.20 L 149.73 102.47 L 149.12 102.98 L 148.33 103.83 L 147.24 104.18 L 146.67 104.07 L 146.91 104.43 L 146.56 104.28 L 146.22 103.72 L 145.36 103.56 L 143.72 103.98 L 142.21 105.01 L 142.09 105.36 L 141.24 104.77 L 140.71 104.79 L 139.92 105.11 L 139.20 105.79 L 138.73 105.98 L 138.46 106.22 L 138.20 106.59 L 137.64 106.23 L 136.66 105.98 L 135.22 106.53 L 134.83 106.84 L 134.08 107.19 L 132.55 107.76 L 131.53 108.05 L 131.16 108.33 L 130.99 108.93 L 130.08 107.95 L 129.46 107.80 L 128.04 108.01 L 125.20 108.10 L 124.37 108.54 L 123.91 108.67 L 123.33 108.99 L 123.03 109.25 L 122.63 109.30 L 122.08 109.12 L 121.52 109.22 L 119.95 109.73 L 118.37 109.57 L 117.26 109.77 L 116.74 110.01 L 115.86 110.58 L 114.47 110.76 L 113.75 110.57 L 112.87 110.61 L 105.49 111.72 L 101.86 112.14 L 100.82 112.02 L 99.23 111.55 L 98.87 111.32 L 98.24 111.29 L 97.19 111.39 L 94.18 110.73 L 91.26 109.83 L 89.22 109.14 L 84.24 105.02 L 80.58 102.05 L 77.85 99.31 L 77.32 98.64 L 74.99 96.06 L 74.12 94.98 L 71.08 91.74 L 70.98 90.82 L 67.74 87.51 L 67.23 86.64 L 66.78 86.24 L 65.51 85.69 L 64.80 85.40 L 63.49 84.37 L 63.07 83.90 L 61.80 82.03 L 60.25 79.48 L 56.47 81.73 L 55.46 82.33 L 50.00 84.07 L 50.45 84.58 L 51.52 86.82 L 51.72 87.08 L 52.36 87.12 L 52.54 87.22 L 52.72 87.32 L 52.93 87.88 L 53.60 89.01 L 53.84 89.51 L 53.97 90.14 L 54.30 90.59 L 54.94 90.52 L 54.95 90.66 L 55.14 91.27 L 55.98 91.94 L 56.19 92.59 L 56.66 93.40 L 57.09 93.79 L 57.71 93.89 L 57.77 94.09 L 57.84 94.34 L 57.71 94.90 L 58.78 95.49 L 59.36 96.05 L 59.75 96.87 L 60.09 97.04 L 60.95 97.27 L 61.35 98.34 L 61.70 98.78 L 62.09 99.76 L 62.53 100.32 L 63.11 100.52 L 63.13 100.63 L 63.46 102.05 L 64.25 103.01 L 64.67 103.37 L 65.81 103.97 L 65.90 104.02 L 65.77 104.53 L 65.94 105.29 L 66.57 107.01 L 66.84 107.58 L 67.99 108.27 L 68.22 108.62 L 68.53 109.93 L 68.99 111.69 L 69.29 111.88 L 69.64 112.15 L 70.52 113.06 L 70.87 113.06 L 71.20 113.16 L 72.03 112.76 L 73.88 111.31 L 74.14 111.27 L 74.48 111.56 L 74.89 113.20 L 74.95 114.20 L 75.22 114.72 L 75.27 116.65 L 75.84 117.15 L 77.17 118.30 L 77.87 117.84 L 78.86 119.02 L 80.07 119.86 L 82.63 121.49 L 83.28 121.66 L 84.17 122.82 L 85.08 123.57 L 85.81 123.84 L 86.41 123.99 L 86.94 123.99 L 87.38 124.17 L 87.99 124.19 L 90.73 125.88 L 91.46 126.16 L 92.66 125.67 L 96.87 125.91 L 98.83 124.61 L 100.89 124.66 L 104.31 125.00 L 104.63 124.96 L 105.32 124.66 L 109.20 124.89 L 109.62 124.69 L 114.52 125.01 L 115.05 124.66 L 117.99 124.72 L 119.75 123.35 L 120.08 122.32 L 125.47 121.38 L 125.90 121.66 L 126.24 122.00 L 126.65 122.19 L 127.46 122.17 L 132.35 121.33 L 132.96 120.96 L 133.34 120.75 L 136.19 119.66 L 137.41 118.78 L 137.81 118.62 L 139.80 118.18 L 140.91 118.20 L 142.04 117.73 L 143.19 117.63 L 144.06 117.40 L 144.80 117.33 L 145.85 117.40 L 146.44 117.33 L 146.86 116.97 L 148.67 116.89 L 150.29 116.70 L 153.90 115.83 L 155.42 115.66 L 156.63 115.26 L 158.63 114.92 L 159.88 114.55 L 160.36 114.47 L 162.00 114.41 L 163.43 114.19 L 164.17 114.16 L 165.09 113.75 L 165.46 113.81 L 166.27 113.61 L 166.97 113.21 L 167.57 113.09 L 168.67 112.91 L 170.00 113.06 L 170.66 112.91 L 174.16 112.75 L 174.90 112.63 L 176.55 112.70 L 177.43 112.55 L 177.91 112.48 L 178.38 112.60 L 179.08 112.46 L 179.69 112.14 L 180.60 112.17 L 182.00 112.58 L 182.45 112.53 L 182.70 112.14 L 182.96 111.98 L 183.76 112.17 L 184.87 111.78 L 186.21 112.07 L 186.94 112.06 L 187.18 111.98 L 187.70 111.38 L 189.36 112.23 L 189.96 112.41 L 191.48 112.27 L 192.30 112.72 L 193.82 113.31 L 194.21 113.35 L 194.58 113.30 L 195.51 112.72 L 195.96 112.81 L 196.60 113.09 L 197.09 113.13 L 198.61 113.52 L 199.28 112.53 L 200.20 112.62 L 200.69 112.97 L 201.13 113.19 L 201.43 113.02 L 202.03 112.94 L 202.54 113.04 L 203.22 113.04 L 203.90 112.65 L 205.34 112.76 L 205.80 112.99 L 206.39 113.16 L 207.22 113.01 L 207.88 112.94 L 209.58 113.32 L 210.56 113.31 L 211.28 112.97 L 212.37 112.92 L 213.69 113.01 L 214.37 113.32 L 215.84 113.44 L 219.05 113.32 L 220.11 113.17 L 222.23 113.71 L 223.29 113.80 L 225.82 113.76 L 229.25 114.02 L 231.30 114.20 L 233.13 114.60 L 235.93 115.82 L 237.48 115.51 L 240.93 117.41 L 241.31 117.70 L 243.35 119.16 L 244.36 120.82 L 245.63 121.92 L 247.88 124.91 L 248.74 126.25 L 254.32 123.30 L 259.89 120.35 Z" fill="#4A90D9" fill-opacity="0.8" stroke="#2E5A8C" stroke-width="2" /><path d="M 323.46 286.91 L 323.96 283.24 L 324.44 276.68 L 324.44 273.54 L 324.58 273.09 L 324.84 272.93 L 324.88 270.33 L 324.97 264.67 L 320.28 253.59 L 320.33 253.02 L 320.53 252.76 L 321.13 252.43 L 322.62 250.73 L 322.97 249.62 L 322.75 248.44 L 321.96 247.05 L 321.50 245.88 L 319.86 244.29 L 318.68 241.53 L 317.66 240.03 L 317.02 239.68 L 316.28 238.63 L 316.23 238.27 L 315.44 236.85 L 313.35 234.49 L 312.91 234.16 L 311.00 232.89 L 310.73 232.15 L 309.87 231.25 L 308.11 229.89 L 307.09 229.36 L 306.23 228.63 L 305.19 227.26 L 302.74 226.05 L 301.96 225.81 L 301.13 225.21 L 300.18 224.52 L 299.18 224.34 L 296.64 222.76 L 296.20 222.74 L 295.49 222.89 L 295.21 221.84 L 293.78 221.40 L 292.53 219.99 L 291.87 219.26 L 291.45 219.06 L 290.88 218.80 L 289.82 217.99 L 287.26 215.80 L 286.90 215.16 L 286.41 214.72 L 284.98 214.53 L 283.42 213.37 L 282.70 212.14 L 280.41 210.23 L 280.27 209.83 L 278.01 206.11 L 276.97 204.67 L 274.92 202.45 L 274.24 200.84 L 273.59 200.60 L 273.19 200.11 L 272.31 197.02 L 271.26 195.40 L 269.49 191.70 L 268.63 188.62 L 268.25 187.36 L 268.16 186.93 L 267.71 186.44 L 267.90 186.05 L 267.38 182.93 L 266.46 180.47 L 265.71 178.94 L 264.95 176.93 L 263.77 172.40 L 263.17 171.43 L 263.44 170.75 L 263.43 170.17 L 263.25 169.78 L 262.51 169.30 L 262.52 167.91 L 262.28 167.34 L 262.20 165.51 L 262.28 163.86 L 262.48 163.39 L 262.99 163.13 L 263.47 162.44 L 263.48 159.98 L 263.91 158.06 L 263.87 155.99 L 263.83 155.31 L 264.22 154.62 L 264.17 152.62 L 264.43 151.24 L 264.66 149.75 L 264.57 146.90 L 264.80 142.91 L 265.14 139.44 L 264.92 138.25 L 264.72 136.28 L 264.20 133.87 L 263.10 132.95 L 262.64 132.99 L 262.27 131.98 L 260.81 124.26 L 259.99 121.60 L 259.89 120.35 L 254.32 123.30 L 248.74 126.25 L 249.65 128.37 L 250.98 132.50 L 251.50 136.90 L 251.57 141.54 L 251.42 142.77 L 251.58 145.41 L 251.57 146.53 L 251.21 147.46 L 251.26 149.03 L 250.67 151.79 L 251.07 152.90 L 250.56 156.14 L 250.68 156.91 L 250.16 160.29 L 250.08 162.13 L 250.31 163.68 L 250.19 165.58 L 250.37 167.04 L 250.53 170.50 L 250.51 175.17 L 250.36 177.29 L 251.24 179.00 L 252.04 179.46 L 251.90 184.37 L 252.30 185.39 L 253.47 190.69 L 254.16 191.01 L 255.11 195.39 L 255.85 195.88 L 255.46 197.67 L 255.99 199.70 L 257.38 200.02 L 257.49 202.43 L 258.35 203.84 L 259.10 204.07 L 258.57 206.17 L 259.22 207.53 L 259.79 208.17 L 260.00 209.62 L 259.44 213.44 L 259.55 214.25 L 260.99 215.81 L 261.39 217.23 L 262.95 220.29 L 263.39 222.08 L 264.70 224.16 L 265.02 225.05 L 265.87 225.89 L 265.32 224.39 L 264.11 222.05 L 263.88 219.14 L 262.72 216.24 L 262.03 215.00 L 261.86 213.69 L 261.55 212.78 L 261.59 212.23 L 262.41 212.19 L 263.32 212.45 L 264.65 213.35 L 266.03 215.15 L 266.85 215.84 L 269.22 216.93 L 270.19 218.00 L 270.56 218.63 L 271.53 219.23 L 273.34 220.94 L 275.01 221.86 L 276.56 223.32 L 277.84 224.16 L 281.43 226.57 L 282.95 227.25 L 284.49 228.58 L 285.35 229.00 L 286.35 230.10 L 287.16 231.87 L 287.83 231.97 L 289.52 234.03 L 290.56 234.75 L 291.39 235.91 L 291.62 236.23 L 292.48 236.59 L 292.76 237.02 L 294.44 237.72 L 295.30 238.67 L 295.98 238.80 L 296.68 239.60 L 300.75 242.85 L 301.40 244.19 L 302.59 245.67 L 304.19 247.31 L 304.54 248.25 L 306.42 251.74 L 306.71 252.45 L 306.82 253.50 L 307.59 254.67 L 308.39 255.56 L 309.36 257.54 L 309.83 260.85 L 310.54 261.58 L 310.62 262.46 L 311.45 265.81 L 311.62 266.59 L 311.34 268.66 L 311.54 269.74 L 312.20 272.02 L 312.39 274.47 L 312.68 275.12 L 312.39 276.86 L 312.52 278.53 L 311.86 282.39 L 312.02 283.95 L 312.28 284.86 L 312.13 287.48 L 311.83 288.16 L 311.42 288.64 L 310.08 288.89 L 309.73 289.31 L 309.85 289.66 L 310.56 289.58 L 311.29 289.58 L 314.31 289.74 L 314.38 290.78 L 314.24 291.84 L 312.20 291.71 L 311.25 291.64 L 311.00 291.89 L 310.71 292.96 L 310.14 295.05 L 309.72 295.55 L 308.09 296.20 L 308.10 296.91 L 308.50 297.29 L 309.52 297.70 L 309.69 297.98 L 309.76 299.03 L 309.54 300.29 L 308.58 302.33 L 308.25 303.70 L 308.40 304.80 L 308.15 306.16 L 307.81 307.15 L 307.45 307.73 L 307.13 309.02 L 306.73 311.78 L 305.47 313.08 L 305.42 313.51 L 312.38 314.16 L 312.49 314.17 L 317.37 314.62 L 318.09 313.95 L 318.12 313.45 L 317.92 312.47 L 317.42 311.77 L 320.95 301.27 L 321.70 298.48 L 322.04 296.24 L 322.45 293.62 L 323.35 292.46 L 327.04 291.79 L 327.44 290.35 L 326.64 289.07 L 326.64 289.07 L 325.49 288.77 L 326.00 287.80 L 325.85 287.13 L 325.14 286.49 L 323.46 286.91 Z" fill="#4A90D9" fill-opacity="0.8" stroke="#2E5A8C" stroke-width="2" /><text dominant-baseline="central" fill="white" fill-opacity="0.7" font-family="Arial, sans-serif" font-size="7.378478372213865px" font-weight="bold" text-anchor="middle" transform="rotate(-86.34568416029445 270.1111513272457 386.86804905722806)" x="270.1111513272457" y="386.86804905722806">ELBE</text><text dominant-baseline="central" fill="#1A1A2E" font-family="Arial, sans-serif" font-size="7.378478372213865px" font-weight="bold" text-anchor="middle" transform="rotate(-86.34568416029445 269.1111513272457 385.86804905722806)" x="269.1111513272457" y="385.86804905722806">ELBE</text><circle cx="269.1111513272457" cy="385.86804905722806" fill="#FF4444" fill-opacity="0.5" r="3" /><text dominant-baseline="central" fill="white" fill-opacity="0.7" font-family="Arial, sans-serif" font-size="7.378478372213865px" font-weight="bold" text-anchor="middle" transform="rotate(7.879574724349993 93.69474046360801 119.16914039933522)" x="93.69474046360801" y="119.16914039933522">ELBE</text><text dominant-baseline="central" fill="#1A1A2E" font-family="Arial, sans-serif" font-size="7.378478372213865px" font-weight="bold" text-anchor="middle" transform="rotate(7.879574724349993 92.69474046360801 118.16914039933522)" x="92.69474046360801" y="118.16914039933522">ELBE</text><circle cx="92.69474046360801" cy="118.16914039933522" fill="#FF4444" fill-opacity="0.5" r="3" /><text dominant-baseline="central" fill="white" fill-opacity="0.7" font-family="Arial, sans-serif" font-size="7.378478372213865px" font-weight="bold" text-anchor="middle" transform="rotate(65.19715047277484 268.42262637377587 206.5591839967234)" x="268.42262637377587" y="206.5591839967234">ELBE</text><text dominant-baseline="central" fill="#1A1A2E" font-family="Arial, sans-serif" font-size="7.378478372213865px" font-weight="bold" text-anchor="middle" transform="rotate(65.19715047277484 267.42262637377587 205.5591839967234)" x="267.42262637377587" y="205.5591839967234">ELBE</text><circle cx="267.42262637377587" cy="205.5591839967234" fill="#FF4444" fill-opacity="0.5" r="3" /><text fill="#666" font-family="Arial, sans-serif" font-size="10px" text-anchor="middle" x="188.72190039571413" y="570">Label positions shown with red dots • Font size: 12.0pt</text></svg>